<svg width="300" height="48" viewBox="0 0 300 48" fill="none" xmlns="http://www.w3.org/2000/svg">
<g clip-path="url(#clip0_716_1119)">
<path d="M25.5779 8.40729V27.0571H8.50759C3.8069 27.0354 0 23.2784 0 18.6606V0H17.0648C21.7434 0.0324815 25.5779 3.79492 25.5779 8.40729Z" fill="white"/>
<path d="M25.5788 42.2476V30.0941H14.3843C11.3278 30.0941 8.83398 32.5681 8.83398 35.5672V47.7478H20.0285C23.085 47.7207 25.5788 45.2738 25.5788 42.2476Z" fill="white"/>
<path d="M28.6738 8.40729V27.0571H45.7442C50.4449 27.0354 54.2518 23.273 54.2518 18.6606V0H37.1814C32.5083 0.0270679 28.6738 3.7895 28.6738 8.40187V8.40729Z" fill="white"/>
<path d="M28.6738 42.2476C28.6738 45.2738 31.1731 47.7207 34.2297 47.7478H45.4242V35.5672C45.4242 32.5681 42.9304 30.0941 39.8738 30.0941H28.6738V42.2476Z" fill="white"/>
<path d="M71.1055 37.9113V11.4064H80.7165C82.6751 11.4064 84.4793 11.7366 86.1179 12.4025C87.762 13.063 89.191 13.9941 90.4103 15.1905C91.6296 16.3869 92.5731 17.7836 93.2517 19.3806C93.9248 20.9776 94.2668 22.7262 94.2668 24.6209C94.2668 26.5157 93.9303 28.2697 93.2517 29.8829C92.5786 31.4962 91.6296 32.9037 90.4103 34.1109C89.191 35.3182 87.762 36.2547 86.1179 36.9152C84.4737 37.5756 82.6751 37.9113 80.7165 37.9113H71.1055ZM80.722 17.5616H78.0572V31.7452H80.722C82.0462 31.7452 83.1993 31.4312 84.1758 30.8087C85.1524 30.1861 85.9082 29.3362 86.4379 28.2535C86.9675 27.1762 87.2324 25.9581 87.2324 24.6101C87.2324 23.2621 86.9675 22.0495 86.4379 20.983C85.9082 19.9165 85.1524 19.0774 84.1758 18.4711C83.1993 17.8702 82.0462 17.5616 80.722 17.5616Z" fill="white"/>
<path d="M115.358 36.9747C113.532 37.7272 111.717 38.1982 109.918 38.3768C108.12 38.5555 106.415 38.4635 104.815 38.0845C103.215 37.7056 101.792 37.0668 100.545 36.1573C99.2978 35.2478 98.3268 34.0893 97.6261 32.6872C96.9254 31.2851 96.5723 29.661 96.5723 27.815C96.5723 26.2829 96.8316 24.87 97.3447 23.587C97.8578 22.3039 98.5971 21.1725 99.5516 20.1981C100.506 19.2236 101.632 18.4711 102.928 17.9352C104.225 17.4047 105.643 17.134 107.176 17.134C108.556 17.134 109.797 17.3559 110.912 17.7944C112.026 18.2383 112.992 18.8555 113.814 19.6459C114.636 20.4363 115.298 21.3782 115.8 22.4718C116.302 23.5653 116.622 24.7563 116.754 26.0555C116.887 27.3548 116.81 28.7299 116.517 30.1861H103.408C103.91 31.1768 104.754 31.8751 105.93 32.292C107.105 32.7088 108.512 32.8388 110.139 32.6818C111.767 32.5248 113.51 32.1079 115.364 31.4366V34.203C115.358 35.1395 115.358 36.0653 115.358 36.9747ZM107.016 22.9048C106.25 22.9048 105.538 23.1106 104.892 23.5274C104.241 23.9443 103.745 24.5776 103.403 25.4384H110.597C110.277 24.556 109.808 23.9118 109.185 23.5112C108.561 23.1051 107.838 22.9048 107.016 22.9048Z" fill="white"/>
<path d="M138.36 29.9208C138.36 31.8968 137.836 33.4992 136.793 34.7335C135.745 35.9678 134.343 36.8556 132.583 37.4024C130.823 37.9492 128.853 38.1874 126.685 38.1224C124.511 38.0574 122.299 37.7272 120.053 37.1263V30.4243C122.117 31.1497 123.998 31.6099 125.692 31.7885C127.386 31.9726 128.738 31.9022 129.742 31.572C130.746 31.2472 131.253 30.695 131.253 29.9154C131.253 29.3686 130.978 28.9193 130.42 28.5729C129.863 28.221 129.14 27.9016 128.258 27.6201C127.369 27.3331 126.437 27.0029 125.455 26.624C124.473 26.2504 123.54 25.7686 122.652 25.184C121.764 24.5993 121.041 23.8306 120.489 22.8832C119.932 21.9358 119.656 20.7448 119.656 19.3156C119.656 17.5508 120.131 16.0567 121.085 14.8332C122.04 13.6097 123.331 12.6894 124.958 12.0669C126.586 11.4443 128.44 11.1303 130.52 11.1303C132.6 11.1303 134.751 11.4443 136.975 12.0669V18.7689C135.121 17.9893 133.422 17.5129 131.871 17.3451C130.321 17.1773 129.085 17.2531 128.158 17.5779C127.231 17.9027 126.768 18.4278 126.768 19.1586C126.768 19.6783 127.044 20.106 127.601 20.4471C128.158 20.7827 128.881 21.0913 129.764 21.362C130.652 21.6326 131.585 21.9575 132.567 22.3364C133.549 22.7154 134.481 23.208 135.369 23.8197C136.258 24.4315 136.98 25.2219 137.532 26.1963C138.078 27.1707 138.36 28.4104 138.36 29.9208Z" fill="white"/>
<path d="M140.463 27.815C140.463 25.839 140.871 24.1067 141.693 22.6125C142.515 21.1184 143.652 19.9165 145.108 19.0071C146.565 18.0976 148.259 17.5454 150.195 17.3505C152.126 17.1556 154.195 17.383 156.391 18.0326V24.0309C154.852 23.3054 153.384 22.9644 151.983 23.0185C150.582 23.0727 149.428 23.4949 148.529 24.2853C147.63 25.0757 147.177 26.2558 147.177 27.815C147.177 29.3741 147.63 30.5488 148.529 31.3446C149.428 32.135 150.582 32.5518 151.983 32.5897C153.384 32.6276 154.857 32.2974 156.391 31.5936V37.5919C154.19 38.2415 152.126 38.4689 150.195 38.274C148.264 38.0791 146.565 37.5269 145.108 36.6174C143.652 35.708 142.51 34.5061 141.693 33.012C140.877 31.5233 140.463 29.7909 140.463 27.815Z" fill="white"/>
<path d="M163.982 15.4558C163.215 15.4558 162.52 15.2771 161.897 14.909C161.273 14.5463 160.776 14.0645 160.407 13.469C160.037 12.8735 159.85 12.2076 159.85 11.4822C159.85 10.7568 160.037 10.0963 160.407 9.51165C160.776 8.92698 161.273 8.45059 161.897 8.08788C162.52 7.72517 163.215 7.54111 163.982 7.54111C164.749 7.54111 165.405 7.72517 166.029 8.08788C166.652 8.45059 167.149 8.92698 167.519 9.51165C167.888 10.0963 168.076 10.7514 168.076 11.4822C168.076 12.213 167.888 12.8735 167.519 13.469C167.149 14.0645 166.652 14.5463 166.029 14.909C165.405 15.2771 164.721 15.4558 163.982 15.4558ZM160.683 37.9113V17.7619H167.237V37.9113H160.683Z" fill="white"/>
<path d="M180.545 37.9113V11.4064H187.497V31.7181H195.955V37.9113H180.545Z" fill="white"/>
<path d="M197.146 37.9113C198.526 33.5479 199.905 29.1305 201.295 24.6588C202.686 20.1872 204.071 15.7697 205.444 11.4064H214.934C216.313 15.7697 217.693 20.1872 219.083 24.6588C220.473 29.1305 221.858 33.5479 223.232 37.9113H216.242C215.977 37.0776 215.723 36.2439 215.486 35.3994C215.249 34.5549 214.995 33.7158 214.73 32.8875H205.638C205.373 33.7212 205.119 34.5549 204.882 35.3994C204.644 36.2439 204.391 37.083 204.126 37.9113H197.146ZM207.398 27.0733H213.003C212.551 25.5413 212.087 23.993 211.613 22.4339C211.138 20.8747 210.675 19.3265 210.222 17.7944C209.77 19.3265 209.301 20.8747 208.81 22.4339C208.319 23.993 207.85 25.5413 207.398 27.0733Z" fill="white"/>
<path d="M229.367 37.9113V17.5995H223.254V11.4064H242.399V17.5995H236.324V37.9113H229.367Z" fill="white"/>
<path d="M242.395 37.9113C243.774 33.5479 245.153 29.1305 246.543 24.6588C247.934 20.1872 249.319 15.7697 250.692 11.4064H260.182C261.561 15.7697 262.941 20.1872 264.331 24.6588C265.721 29.1305 267.106 33.5479 268.48 37.9113H261.49C261.225 37.0776 260.971 36.2439 260.734 35.3994C260.497 34.5549 260.243 33.7158 259.978 32.8875H250.886C250.621 33.7212 250.367 34.5549 250.13 35.3994C249.892 36.2439 249.639 37.083 249.374 37.9113H242.395ZM252.646 27.0733H258.251C257.799 25.5413 257.335 23.993 256.861 22.4339C256.386 20.8747 255.923 19.3265 255.47 17.7944C255.018 19.3265 254.549 20.8747 254.058 22.4339C253.567 23.993 253.092 25.5413 252.646 27.0733Z" fill="white"/>
<path d="M271.078 37.9113V11.4064H281.009C281.776 14.0591 282.537 16.7388 283.293 19.4564C284.049 22.174 284.794 24.8537 285.539 27.5064C286.278 24.8537 287.028 22.174 287.784 19.4564C288.54 16.7388 289.285 14.0591 290.03 11.4064H299.845C299.873 15.7697 299.9 20.1872 299.922 24.6588C299.95 29.1305 299.977 33.5479 300 37.9113H293.291V19.9382C292.496 22.8994 291.691 25.8931 290.868 28.9247C290.046 31.9509 289.241 34.9446 288.446 37.9113H282.405C281.611 34.9988 280.816 32.0592 280.022 29.0817C279.227 26.1043 278.433 23.1647 277.638 20.2522V37.9113H271.078Z" fill="white"/>
</g>
<defs>
<clipPath id="clip0_716_1119">
<rect width="300" height="47.7477" fill="white"/>
</clipPath>
</defs>
</svg>
