<svg width="291" height="258" viewBox="0 0 291 258" fill="none" xmlns="http://www.w3.org/2000/svg">
<path d="M135 45.3657V146H44.9029C20.0927 145.883 0 125.61 0 100.693V0H90.0679C114.762 0.17527 135 20.4774 135 45.3657Z" fill="white"/>
<path d="M135 228.402V163H77.5061C61.8079 163 49 176.313 49 192.453V258H106.494C122.192 257.854 135 244.687 135 228.402Z" fill="white"/>
<path d="M153 45.3657V146H245.099C270.461 145.883 291 125.581 291 100.693V0H198.901C173.688 0.146058 153 20.4482 153 45.3365V45.3657Z" fill="white"/>
<path d="M153 228.402C153 244.687 166.429 257.854 182.852 258H243V192.453C243 176.313 229.601 163 213.178 163H153V228.402Z" fill="white"/>
</svg>
